<?xml version="1.0" encoding="UTF-8" standalone="no"?>
<svg
   xmlns:dc="http://purl.org/dc/elements/1.1/"
   xmlns:cc="http://creativecommons.org/ns#"
   xmlns:rdf="http://www.w3.org/1999/02/22-rdf-syntax-ns#"
   xmlns:svg="http://www.w3.org/2000/svg"
   xmlns="http://www.w3.org/2000/svg"
   xmlns:sodipodi="http://sodipodi.sourceforge.net/DTD/sodipodi-0.dtd"
   xmlns:inkscape="http://www.inkscape.org/namespaces/inkscape"
   id="svg1302"
   version="1.1"
   viewBox="0 0 177 80"
   height="80mm"
   width="177mm"
   sodipodi:docname="amongtalents-inkscape.svg"
   inkscape:version="0.92.4 (5da689c313, 2019-01-14)">
  <sodipodi:namedview
     pagecolor="#ffffff"
     bordercolor="#666666"
     borderopacity="1"
     objecttolerance="10"
     gridtolerance="10"
     guidetolerance="10"
     inkscape:pageopacity="0"
     inkscape:pageshadow="2"
     inkscape:window-width="1920"
     inkscape:window-height="1027"
     id="namedview21"
     showgrid="false"
     inkscape:zoom="1.1330744"
     inkscape:cx="456.93256"
     inkscape:cy="140.25725"
     inkscape:window-x="-8"
     inkscape:window-y="-8"
     inkscape:window-maximized="1"
     inkscape:current-layer="svg1302" />
  <defs
     id="defs1296" />
  <metadata
     id="metadata1299">
    <rdf:RDF>
      <cc:Work
         rdf:about="">
        <dc:format>image/svg+xml</dc:format>
        <dc:type
           rdf:resource="http://purl.org/dc/dcmitype/StillImage" />
        <dc:title></dc:title>
      </cc:Work>
    </rdf:RDF>
  </metadata>
  <g
     transform="translate(0,-217)"
     id="layer1">
    <g
       style="fill:#ffffff;fill-opacity:1"
       id="g867-5-0-5-9-1-7"
       transform="matrix(4.5954745,0,0,4.5954745,-648.77982,-102.41676)">
      <path
         style="font-style:normal;font-variant:normal;font-weight:normal;font-stretch:normal;font-size:40px;line-height:1.25;font-family:'Arial Rounded MT Bold';-inkscape-font-specification:'Arial Rounded MT Bold, Normal';font-variant-ligatures:normal;font-variant-caps:normal;font-variant-numeric:normal;font-feature-settings:normal;text-align:start;letter-spacing:0px;word-spacing:0px;writing-mode:lr-tb;text-anchor:start;fill:#ffffff;fill-opacity:1;stroke:none;stroke-width:0.26458332"
         id="path825-4-2-0-7-91-6"
         d="m 148.6635,76.748113 -0.36173,-0.950847 h -3.07992 l -0.36173,0.971516 q -0.21188,0.568441 -0.36174,0.76998 -0.14986,0.196371 -0.49093,0.196371 -0.28938,0 -0.51159,-0.211873 -0.22221,-0.211873 -0.22221,-0.480592 0,-0.15503 0.0517,-0.320395 0.0517,-0.165364 0.17053,-0.459919 l 1.93786,-4.919596 q 0.0827,-0.211873 0.19638,-0.506428 0.11885,-0.299723 0.24804,-0.496094 0.13436,-0.19637 0.34623,-0.315226 0.21704,-0.124024 0.53227,-0.124024 0.3204,0 0.53227,0.124024 0.21704,0.118856 0.34623,0.310058 0.13436,0.191202 0.22221,0.413412 0.093,0.217041 0.23254,0.583944 l 1.97921,4.888588 q 0.23254,0.558107 0.23254,0.811321 0,0.263549 -0.22221,0.485759 -0.21704,0.217041 -0.5271,0.217041 -0.18086,0 -0.31005,-0.06718 -0.12919,-0.06201 -0.21704,-0.170531 -0.0879,-0.113689 -0.19121,-0.341064 -0.0982,-0.232545 -0.17053,-0.408244 z m -3.03857,-2.103231 h 2.26342 l -1.14204,-3.126424 z" />
      <path
         style="font-style:normal;font-variant:normal;font-weight:normal;font-stretch:normal;font-size:40px;line-height:1.25;font-family:'Arial Rounded MT Bold';-inkscape-font-specification:'Arial Rounded MT Bold, Normal';font-variant-ligatures:normal;font-variant-caps:normal;font-variant-numeric:normal;font-feature-settings:normal;text-align:start;letter-spacing:0px;word-spacing:0px;writing-mode:lr-tb;text-anchor:start;fill:#ffffff;fill-opacity:1;stroke:none;stroke-width:0.26458332"
         id="path827-1-9-4-1-1-4"
         d="m 156.01706,74.970443 v 1.875854 q 0,0.444418 -0.20154,0.666626 -0.20154,0.22221 -0.53227,0.22221 -0.32039,0 -0.52193,-0.22221 -0.19637,-0.222208 -0.19637,-0.666626 v -2.247924 q 0,-0.532266 -0.0362,-0.826822 -0.0362,-0.294555 -0.19637,-0.480592 -0.1602,-0.191201 -0.50643,-0.191201 -0.69247,0 -0.91468,0.475422 -0.21704,0.475425 -0.21704,1.364257 v 1.90686 q 0,0.439251 -0.20153,0.666626 -0.19638,0.22221 -0.52194,0.22221 -0.32039,0 -0.5271,-0.22221 -0.20154,-0.227375 -0.20154,-0.666626 V 72.81037 q 0,-0.397909 0.18087,-0.604615 0.18604,-0.206706 0.48576,-0.206706 0.28939,0 0.48059,0.196371 0.19637,0.191202 0.19637,0.532268 v 0.134358 q 0.36691,-0.439251 0.78548,-0.645956 0.41858,-0.206706 0.93018,-0.206706 0.53227,0 0.91467,0.211873 0.38241,0.211876 0.63046,0.640789 0.35656,-0.434083 0.76481,-0.640789 0.40824,-0.211873 0.90433,-0.211873 0.57878,0 0.99736,0.227378 0.41858,0.227375 0.62528,0.651123 0.18087,0.382405 0.18087,1.204061 v 2.754351 q 0,0.444418 -0.20154,0.666626 -0.20154,0.22221 -0.53226,0.22221 -0.3204,0 -0.5271,-0.22221 -0.20154,-0.227375 -0.20154,-0.666626 v -2.371946 q 0,-0.454753 -0.0413,-0.728639 -0.0362,-0.273883 -0.20671,-0.45992 -0.17053,-0.186034 -0.51676,-0.186034 -0.27906,0 -0.53227,0.165365 -0.24805,0.165364 -0.38757,0.444415 -0.15503,0.356569 -0.15503,1.260905 z" />
      <path
         style="font-style:normal;font-variant:normal;font-weight:normal;font-stretch:normal;font-size:40px;line-height:1.25;font-family:'Arial Rounded MT Bold';-inkscape-font-specification:'Arial Rounded MT Bold, Normal';font-variant-ligatures:normal;font-variant-caps:normal;font-variant-numeric:normal;font-feature-settings:normal;text-align:start;letter-spacing:0px;word-spacing:0px;writing-mode:lr-tb;text-anchor:start;fill:#ffffff;fill-opacity:1;stroke:none;stroke-width:0.26458332"
         id="path829-3-2-1-9-3-4"
         d="m 165.96994,74.867089 q 0,0.630455 -0.19637,1.162722 -0.19637,0.532265 -0.56844,0.914673 -0.37207,0.382405 -0.88884,0.58911 -0.51676,0.201539 -1.16272,0.201539 -0.64079,0 -1.15238,-0.206706 -0.5116,-0.206706 -0.88884,-0.589111 -0.37207,-0.387574 -0.56844,-0.909505 -0.1912,-0.5271 -0.1912,-1.162722 0,-0.640785 0.19637,-1.173053 0.19637,-0.532267 0.56327,-0.909505 0.36691,-0.377238 0.88884,-0.578776 0.52193,-0.206706 1.15238,-0.206706 0.64079,0 1.16272,0.206706 0.52193,0.206706 0.894,0.589111 0.37207,0.382407 0.56328,0.909505 0.19637,0.5271 0.19637,1.162718 z m -1.41594,0 q 0,-0.862993 -0.3824,-1.343585 -0.37724,-0.480591 -1.01803,-0.480591 -0.41341,0 -0.72864,0.217043 -0.31522,0.211873 -0.48575,0.630451 -0.17054,0.418579 -0.17054,0.976682 0,0.55294 0.16537,0.966351 0.17053,0.413412 0.48059,0.635619 0.31522,0.217041 0.73897,0.217041 0.64079,0 1.01803,-0.48059 0.3824,-0.485759 0.3824,-1.338421 z" />
      <path
         style="font-style:normal;font-variant:normal;font-weight:normal;font-stretch:normal;font-size:40px;line-height:1.25;font-family:'Arial Rounded MT Bold';-inkscape-font-specification:'Arial Rounded MT Bold, Normal';font-variant-ligatures:normal;font-variant-caps:normal;font-variant-numeric:normal;font-feature-settings:normal;text-align:start;letter-spacing:0px;word-spacing:0px;writing-mode:lr-tb;text-anchor:start;fill:#ffffff;fill-opacity:1;stroke:none;stroke-width:4.59547424"
         d="M 460.49219 43.287109 C 456.96182 43.287109 454.17899 44.453459 452.14453 46.787109 C 450.11007 49.060918 449.09375 52.531965 449.09375 57.199219 L 449.09375 128.01562 C 449.09375 132.80258 450.23011 136.48366 452.50391 139.05664 C 454.7777 141.62964 457.68057 142.91602 461.21094 142.91602 C 464.86103 142.91602 467.82191 141.68964 470.0957 139.23633 C 472.42936 136.72315 473.59766 132.98208 473.59766 128.01562 L 473.59766 97.320312 C 473.59766 87.327554 474.19587 80.505494 475.39258 76.855469 C 477.06797 72.307839 479.70078 68.746796 483.29102 66.173828 C 486.88125 63.540984 490.8604 62.224609 495.22852 62.224609 C 501.9303 62.224609 506.38763 64.379246 508.60156 68.6875 C 510.87536 72.935924 512.01172 79.09975 512.01172 87.177734 L 512.01172 100.2207 L 512.01172 128.01562 L 512.01172 142.19336 L 511.66992 156.77539 L 509.32031 156.82812 C 505.61035 156.82812 502.76762 157.66641 500.79297 159.3418 C 498.87789 160.95738 497.92188 163.05201 497.92188 165.625 C 497.92188 168.198 498.85027 170.32266 500.70508 171.99805 C 502.56006 173.67352 505.25088 174.51172 508.78125 174.51172 L 512.01367 174.51172 L 512.01367 221.54297 C 512.01367 229.14225 512.61189 235.21605 513.80859 239.76367 C 515.06522 244.31127 517.66806 247.87039 521.61719 250.44336 C 525.56649 253.01638 531.37021 254.30273 539.0293 254.30273 C 547.10732 254.30273 553.30106 253.25643 557.60938 251.16211 C 561.91769 249.06784 564.07227 246.04493 564.07227 242.0957 C 564.07227 239.76206 563.26373 237.81744 561.64844 236.26172 C 560.09272 234.64611 558.32621 233.83984 556.35156 233.83984 C 554.97544 233.83984 553.06075 234.10788 550.60742 234.64648 C 548.15409 235.12517 546.20983 235.36523 544.77344 235.36523 C 542.14051 235.36523 540.226 234.7371 539.0293 233.48047 C 537.8913 232.16404 537.17374 230.48758 536.875 228.45312 C 536.63705 226.35882 536.51562 223.39792 536.51562 219.56836 L 536.51562 174.51172 L 541.09375 174.51172 C 545.94049 174.51172 549.64965 173.85348 552.22266 172.53711 C 554.85541 171.22068 556.17188 168.91603 556.17188 165.625 C 556.17188 163.05201 555.2456 160.95744 553.39062 159.3418 C 551.59557 157.66631 548.96263 156.82812 545.49219 156.82812 L 536.51562 156.82812 L 536.51562 140.13477 C 536.51562 138.78874 536.48058 137.58197 536.42969 136.43945 L 536.42969 100.2207 C 536.42969 100.21375 536.4261 100.20805 536.42578 100.20117 L 536.42578 82.419922 C 536.42578 77.034576 536.1872 72.607244 535.70898 69.136719 C 535.2303 65.666182 534.18204 62.435203 532.56641 59.443359 C 530.05327 54.297377 526.25411 50.318191 521.16797 47.505859 C 516.08183 44.693516 510.30803 43.287109 503.8457 43.287109 C 497.20379 43.287109 491.31007 44.633499 486.16406 47.326172 C 481.07792 49.958981 476.38052 54.118218 472.07227 59.802734 L 472.07227 56.839844 L 472.07031 56.839844 C 472.07031 53.907841 471.53194 51.425081 470.45508 49.390625 C 469.43785 47.356157 468.06142 45.829728 466.32617 44.8125 C 464.59092 43.795272 462.64637 43.287109 460.49219 43.287109 z "
         transform="matrix(0.05757476,0,0,0.05757476,141.17798,69.506807)"
         id="path831-7-7-7-4-6-8" />
      <path
         style="font-style:normal;font-variant:normal;font-weight:normal;font-stretch:normal;font-size:40px;line-height:1.25;font-family:'Arial Rounded MT Bold';-inkscape-font-specification:'Arial Rounded MT Bold, Normal';font-variant-ligatures:normal;font-variant-caps:normal;font-variant-numeric:normal;font-feature-settings:normal;text-align:start;letter-spacing:0px;word-spacing:0px;writing-mode:lr-tb;text-anchor:start;fill:#ffffff;fill-opacity:1;stroke:none;stroke-width:0.26458332"
         id="path833-2-6-9-5-99-6"
         d="m 179.62578,73.032578 v 4.09794 q 0,0.702799 -0.14986,1.209227 -0.14986,0.506431 -0.48059,0.837161 -0.33073,0.330729 -0.86816,0.490926 -0.53227,0.160195 -1.32809,0.160195 -0.72864,0 -1.30224,-0.206706 -0.57361,-0.201536 -0.88367,-0.527098 -0.31006,-0.320394 -0.31006,-0.661458 0,-0.258384 0.1757,-0.423749 0.1757,-0.160194 0.42375,-0.160194 0.31006,0 0.5426,0.273883 0.11369,0.139528 0.23255,0.279053 0.12402,0.144693 0.26871,0.24288 0.14986,0.103352 0.35657,0.14986 0.20671,0.05168 0.47542,0.05168 0.54777,0 0.8475,-0.15503 0.30489,-0.149862 0.42374,-0.423746 0.12403,-0.273886 0.1447,-0.589113 0.0207,-0.310057 0.031,-1.002522 -0.32556,0.454753 -0.75447,0.692465 -0.42375,0.237712 -1.01286,0.237712 -0.70797,0 -1.24023,-0.361736 -0.52711,-0.361735 -0.81133,-1.012859 -0.28422,-0.651121 -0.28422,-1.503783 0,-0.635618 0.17054,-1.147217 0.1757,-0.511595 0.49609,-0.862996 0.32039,-0.351399 0.73897,-0.527098 0.41858,-0.180869 0.91984,-0.180869 0.59945,0 1.0387,0.232545 0.43925,0.227375 0.81649,0.718301 v -0.191201 q 0,-0.366903 0.18087,-0.568441 0.18086,-0.201539 0.46508,-0.201539 0.40825,0 0.54261,0.268719 0.13435,0.263549 0.13435,0.76481 z m -4.0876,1.788003 q 0,0.857829 0.37207,1.29708 0.37724,0.439248 0.97152,0.439248 0.35139,0 0.66145,-0.186034 0.31523,-0.191204 0.5116,-0.568441 0.19637,-0.382405 0.19637,-0.925008 0,-0.862995 -0.3824,-1.343587 -0.37724,-0.480589 -0.99736,-0.480589 -0.60461,0 -0.97152,0.45992 -0.36173,0.45992 -0.36173,1.307411 z"
         inkscape:connector-curvature="0" />
    </g>
    <g
       style="fill:#ffffff;fill-opacity:1"
       transform="matrix(4.5954745,0,0,4.5954745,-654.88261,-144.85233)"
       id="g876-0-3-5-4-4-6">
      <path
         id="path835-5-4-5-6-6-6"
         style="font-style:normal;font-variant:normal;font-weight:normal;font-stretch:normal;font-size:40px;line-height:1.25;font-family:'Arial Rounded MT Bold';-inkscape-font-specification:'Arial Rounded MT Bold, Normal';font-variant-ligatures:normal;font-variant-caps:normal;font-variant-numeric:normal;font-feature-settings:normal;text-align:start;letter-spacing:0px;word-spacing:0px;writing-mode:lr-tb;text-anchor:start;fill:#ffffff;fill-opacity:1;stroke:none;stroke-width:0.26458332"
         d="m 148.73585,89.010559 h -1.67432 v 5.50354 q 0,0.475425 -0.21187,0.707967 -0.21188,0.227378 -0.54777,0.227378 -0.34107,0 -0.55811,-0.232545 -0.21187,-0.232543 -0.21187,-0.7028 v -5.50354 h -1.67432 q -0.39274,0 -0.58394,-0.170531 -0.1912,-0.1757 -0.1912,-0.45992 0,-0.294556 0.19637,-0.465088 0.20154,-0.170534 0.57877,-0.170534 h 4.87826 q 0.39791,0 0.58911,0.175702 0.19637,0.175699 0.19637,0.45992 0,0.28422 -0.19637,0.45992 -0.19637,0.170531 -0.58911,0.170531 z" />
      <path
         id="path837-2-6-6-5-6-0"
         style="font-style:normal;font-variant:normal;font-weight:normal;font-stretch:normal;font-size:40px;line-height:1.25;font-family:'Arial Rounded MT Bold';-inkscape-font-specification:'Arial Rounded MT Bold, Normal';font-variant-ligatures:normal;font-variant-caps:normal;font-variant-numeric:normal;font-feature-settings:normal;text-align:start;letter-spacing:0px;word-spacing:0px;writing-mode:lr-tb;text-anchor:start;fill:#ffffff;fill-opacity:1;stroke:none;stroke-width:0.26458332"
         d="m 153.36606,94.653627 q -0.5116,0.397907 -0.99219,0.599445 -0.47543,0.196372 -1.0697,0.196372 -0.54261,0 -0.95602,-0.211874 -0.40824,-0.217043 -0.63045,-0.583943 -0.22221,-0.366903 -0.22221,-0.795819 0,-0.578776 0.3669,-0.98702 0.36691,-0.408242 1.00769,-0.54777 0.13436,-0.03101 0.66663,-0.139525 0.53227,-0.108521 0.9095,-0.196371 0.38241,-0.09302 0.82683,-0.222208 -0.0258,-0.558107 -0.22738,-0.816488 -0.19637,-0.263549 -0.82165,-0.263549 -0.53744,0 -0.81132,0.14986 -0.26872,0.149863 -0.46509,0.449585 -0.1912,0.299723 -0.27389,0.39791 -0.0775,0.09302 -0.34106,0.09302 -0.23771,0 -0.41341,-0.149863 -0.17053,-0.155027 -0.17053,-0.392739 0,-0.372071 0.26355,-0.723472 0.26355,-0.351398 0.82165,-0.578776 0.55811,-0.227375 1.3901,-0.227375 0.93017,0 1.46244,0.222208 0.53227,0.21704 0.74931,0.692465 0.22221,0.475422 0.22221,1.260903 0,0.496094 -0.005,0.842328 0,0.346231 -0.005,0.769977 0,0.39791 0.12919,0.831993 0.13436,0.428913 0.13436,0.552937 0,0.21704 -0.20671,0.397909 -0.20154,0.1757 -0.45992,0.1757 -0.21704,0 -0.42891,-0.201539 -0.21188,-0.206706 -0.44959,-0.594278 z m -0.093,-2.041221 q -0.31006,0.113689 -0.90434,0.24288 -0.58911,0.124023 -0.81649,0.186036 -0.22737,0.05684 -0.43408,0.232543 -0.20671,0.170532 -0.20671,0.480592 0,0.320394 0.24288,0.547769 0.24288,0.222208 0.63563,0.222208 0.41857,0 0.76997,-0.180867 0.35657,-0.186034 0.52194,-0.475422 0.1912,-0.320394 0.1912,-1.0542 z" />
      <path
         id="path839-5-2-6-2-2-5"
         style="font-style:normal;font-variant:normal;font-weight:normal;font-stretch:normal;font-size:40px;line-height:1.25;font-family:'Arial Rounded MT Bold';-inkscape-font-specification:'Arial Rounded MT Bold, Normal';font-variant-ligatures:normal;font-variant-caps:normal;font-variant-numeric:normal;font-feature-settings:normal;text-align:start;letter-spacing:0px;word-spacing:0px;writing-mode:lr-tb;text-anchor:start;fill:#ffffff;fill-opacity:1;stroke:none;stroke-width:0.26458332"
         d="M 155.91203,94.605229 V 88.48674 q 0,-0.423746 0.18603,-0.640787 0.19121,-0.217043 0.5116,-0.217043 0.32039,0 0.51677,0.217043 0.19636,0.211873 0.19636,0.640787 v 6.118489 q 0,0.428913 -0.20153,0.645956 -0.19637,0.211874 -0.5116,0.211874 -0.31006,0 -0.50643,-0.222211 -0.1912,-0.222207 -0.1912,-0.635619 z" />
      <path
         id="path841-0-8-1-3-4-9"
         style="font-style:normal;font-variant:normal;font-weight:normal;font-stretch:normal;font-size:40px;line-height:1.25;font-family:'Arial Rounded MT Bold';-inkscape-font-specification:'Arial Rounded MT Bold, Normal';font-variant-ligatures:normal;font-variant-caps:normal;font-variant-numeric:normal;font-feature-settings:normal;text-align:start;letter-spacing:0px;word-spacing:0px;writing-mode:lr-tb;text-anchor:start;fill:#ffffff;fill-opacity:1;stroke:none;stroke-width:0.26458332"
         d="m 162.89002,92.939327 h -2.75952 q 0.005,0.480589 0.1912,0.847492 0.19121,0.366903 0.50126,0.552939 0.31523,0.186034 0.69247,0.186034 0.25321,0 0.45992,-0.05684 0.21187,-0.06201 0.40824,-0.186036 0.19637,-0.129191 0.36174,-0.273884 0.16536,-0.144695 0.42891,-0.392742 0.10852,-0.09302 0.31006,-0.09302 0.21704,0 0.3514,0.118856 0.13436,0.118856 0.13436,0.335897 0,0.191203 -0.14986,0.449585 -0.14986,0.253214 -0.45475,0.490926 -0.29973,0.232543 -0.75965,0.387573 -0.45475,0.15503 -1.04903,0.15503 -1.35909,0 -2.11356,-0.775148 -0.75448,-0.775147 -0.75448,-2.103231 0,-0.625284 0.18603,-1.157552 0.18604,-0.537435 0.54261,-0.91984 0.35656,-0.382405 0.87849,-0.583943 0.52194,-0.206706 1.15756,-0.206706 0.82682,0 1.41593,0.351399 0.59428,0.346233 0.88884,0.89917 0.29455,0.552937 0.29455,1.126546 0,0.532267 -0.30489,0.692465 -0.30489,0.15503 -0.85783,0.15503 z M 160.1305,92.13834 h 2.55798 q -0.0517,-0.723468 -0.39274,-1.080037 -0.33589,-0.361733 -0.88883,-0.361733 -0.5271,0 -0.86817,0.366901 -0.33589,0.361735 -0.40824,1.074869 z" />
      <path
         id="path843-9-1-7-8-6-9"
         style="font-style:normal;font-variant:normal;font-weight:normal;font-stretch:normal;font-size:40px;line-height:1.25;font-family:'Arial Rounded MT Bold';-inkscape-font-specification:'Arial Rounded MT Bold, Normal';font-variant-ligatures:normal;font-variant-caps:normal;font-variant-numeric:normal;font-feature-settings:normal;text-align:start;letter-spacing:0px;word-spacing:0px;writing-mode:lr-tb;text-anchor:start;fill:#ffffff;fill-opacity:1;stroke:none;stroke-width:0.26458332"
         d="m 166.51771,90.479974 v 0.170532 q 0.37207,-0.490926 0.81132,-0.718301 0.44441,-0.232545 1.01802,-0.232545 0.55811,0 0.99736,0.242879 0.43925,0.24288 0.65629,0.687298 0.13952,0.258382 0.18087,0.558104 0.0413,0.299723 0.0413,0.764813 v 2.625161 q 0,0.423746 -0.19637,0.640789 -0.19121,0.217041 -0.50126,0.217041 -0.31523,0 -0.5116,-0.222211 -0.19637,-0.222207 -0.19637,-0.635619 v -2.351278 q 0,-0.697632 -0.19637,-1.064535 -0.1912,-0.37207 -0.76998,-0.37207 -0.37724,0 -0.6873,0.227377 -0.31006,0.222208 -0.45475,0.61495 -0.10335,0.315225 -0.10335,1.178221 v 1.767335 q 0,0.428913 -0.20154,0.645956 -0.19637,0.211874 -0.5116,0.211874 -0.30489,0 -0.50126,-0.222211 -0.19637,-0.222207 -0.19637,-0.635619 v -4.077271 q 0,-0.403075 0.1757,-0.599446 0.1757,-0.201538 0.48059,-0.201538 0.18604,0 0.3359,0.08785 0.14986,0.08785 0.23771,0.263551 0.093,0.175699 0.093,0.428913 z" />
      <path
         id="path847-8-8-1-0-6-1"
         style="font-style:normal;font-variant:normal;font-weight:normal;font-stretch:normal;font-size:40px;line-height:1.25;font-family:'Arial Rounded MT Bold';-inkscape-font-specification:'Arial Rounded MT Bold, Normal';font-variant-ligatures:normal;font-variant-caps:normal;font-variant-numeric:normal;font-feature-settings:normal;text-align:start;letter-spacing:0px;word-spacing:0px;writing-mode:lr-tb;text-anchor:start;fill:#ffffff;fill-opacity:1;stroke:none;stroke-width:0.26458332"
         d="m 180.95393,93.617958 q 0,0.583943 -0.28422,1.002522 -0.28422,0.413411 -0.84233,0.630454 -0.55293,0.211874 -1.34875,0.211874 -0.75964,0 -1.30225,-0.232545 -0.5426,-0.232543 -0.80098,-0.578776 -0.25838,-0.351399 -0.25838,-0.7028 0,-0.232542 0.16536,-0.397907 0.16537,-0.165364 0.41858,-0.165364 0.22221,0 0.34107,0.108518 0.11885,0.108522 0.22737,0.304893 0.21704,0.377238 0.51677,0.563272 0.30489,0.186036 0.82682,0.186036 0.42374,0 0.69246,-0.186036 0.27389,-0.191202 0.27389,-0.434081 0,-0.37207 -0.28422,-0.542602 -0.27905,-0.170535 -0.92501,-0.325562 -0.72864,-0.180869 -1.18856,-0.377238 -0.45475,-0.201538 -0.72864,-0.5271 -0.27388,-0.325562 -0.27388,-0.800986 0,-0.423747 0.25321,-0.800984 0.25322,-0.377238 0.74414,-0.599445 0.4961,-0.227378 1.19373,-0.227378 0.54777,0 0.98185,0.113689 0.43925,0.113689 0.72864,0.30489 0.29456,0.191203 0.44442,0.423746 0.15503,0.232545 0.15503,0.454752 0,0.24288 -0.16537,0.39791 -0.1602,0.15503 -0.45992,0.15503 -0.21704,0 -0.37207,-0.124024 -0.14986,-0.124023 -0.34623,-0.37207 -0.1602,-0.206706 -0.37724,-0.330729 -0.21704,-0.124023 -0.58911,-0.124023 -0.38241,0 -0.63562,0.165364 -0.25321,0.160197 -0.25321,0.403077 0,0.222208 0.18603,0.3669 0.18604,0.139528 0.50126,0.232545 0.31523,0.09302 0.86816,0.227378 0.6563,0.160194 1.06971,0.382405 0.41858,0.222207 0.63045,0.5271 0.21704,0.299723 0.21704,0.687295 z"
         inkscape:connector-curvature="0" />
    </g>
  </g>
</svg>
