<?xml version="1.0" encoding="UTF-8" standalone="no"?>
<!-- Created with Inkscape (http://www.inkscape.org/) -->

<svg
   xmlns:dc="http://purl.org/dc/elements/1.1/"
   xmlns:cc="http://creativecommons.org/ns#"
   xmlns:rdf="http://www.w3.org/1999/02/22-rdf-syntax-ns#"
   xmlns:svg="http://www.w3.org/2000/svg"
   xmlns="http://www.w3.org/2000/svg"
   xmlns:sodipodi="http://sodipodi.sourceforge.net/DTD/sodipodi-0.dtd"
   xmlns:inkscape="http://www.inkscape.org/namespaces/inkscape"
   width="177mm"
   height="80mm"
   viewBox="0 0 177 80"
   version="1.1"
   id="svg1302"
   inkscape:version="0.92.4 (5da689c313, 2019-01-14)"
   sodipodi:docname="amongtalents-black.svg">
  <defs
     id="defs1296" />
  <sodipodi:namedview
     id="base"
     pagecolor="#ffffff"
     bordercolor="#666666"
     borderopacity="1.0"
     inkscape:pageopacity="0.0"
     inkscape:pageshadow="2"
     inkscape:zoom="0.98994949"
     inkscape:cx="152.67989"
     inkscape:cy="277.54896"
     inkscape:document-units="mm"
     inkscape:current-layer="layer1"
     showgrid="false"
     inkscape:window-width="1920"
     inkscape:window-height="1027"
     inkscape:window-x="-8"
     inkscape:window-y="-8"
     inkscape:window-maximized="1" />
  <metadata
     id="metadata1299">
    <rdf:RDF>
      <cc:Work
         rdf:about="">
        <dc:format>image/svg+xml</dc:format>
        <dc:type
           rdf:resource="http://purl.org/dc/dcmitype/StillImage" />
        <dc:title></dc:title>
      </cc:Work>
    </rdf:RDF>
  </metadata>
  <g
     inkscape:label="Layer 1"
     inkscape:groupmode="layer"
     id="layer1"
     transform="translate(0,-217)">
    <g
       transform="matrix(4.5954745,0,0,4.5954745,-648.77982,-102.41676)"
       id="g867-5-0-5-9-1-7"
       style="fill:#151515;fill-opacity:1">
      <path
         d="m 148.6635,76.748113 -0.36173,-0.950847 h -3.07992 l -0.36173,0.971516 q -0.21188,0.568441 -0.36174,0.76998 -0.14986,0.196371 -0.49093,0.196371 -0.28938,0 -0.51159,-0.211873 -0.22221,-0.211873 -0.22221,-0.480592 0,-0.15503 0.0517,-0.320395 0.0517,-0.165364 0.17053,-0.459919 l 1.93786,-4.919596 q 0.0827,-0.211873 0.19638,-0.506428 0.11885,-0.299723 0.24804,-0.496094 0.13436,-0.19637 0.34623,-0.315226 0.21704,-0.124024 0.53227,-0.124024 0.3204,0 0.53227,0.124024 0.21704,0.118856 0.34623,0.310058 0.13436,0.191202 0.22221,0.413412 0.093,0.217041 0.23254,0.583944 l 1.97921,4.888588 q 0.23254,0.558107 0.23254,0.811321 0,0.263549 -0.22221,0.485759 -0.21704,0.217041 -0.5271,0.217041 -0.18086,0 -0.31005,-0.06718 -0.12919,-0.06201 -0.21704,-0.170531 -0.0879,-0.113689 -0.19121,-0.341064 -0.0982,-0.232545 -0.17053,-0.408244 z m -3.03857,-2.103231 h 2.26342 l -1.14204,-3.126424 z"
         id="path825-4-2-0-7-91-6"
         inkscape:connector-curvature="0"
         style="font-style:normal;font-variant:normal;font-weight:normal;font-stretch:normal;font-size:40px;line-height:1.25;font-family:'Arial Rounded MT Bold';-inkscape-font-specification:'Arial Rounded MT Bold, Normal';font-variant-ligatures:normal;font-variant-caps:normal;font-variant-numeric:normal;font-feature-settings:normal;text-align:start;letter-spacing:0px;word-spacing:0px;writing-mode:lr-tb;text-anchor:start;fill:#151515;fill-opacity:1;stroke:none;stroke-width:0.26458332" />
      <path
         d="m 156.01706,74.970443 v 1.875854 q 0,0.444418 -0.20154,0.666626 -0.20154,0.22221 -0.53227,0.22221 -0.32039,0 -0.52193,-0.22221 -0.19637,-0.222208 -0.19637,-0.666626 v -2.247924 q 0,-0.532266 -0.0362,-0.826822 -0.0362,-0.294555 -0.19637,-0.480592 -0.1602,-0.191201 -0.50643,-0.191201 -0.69247,0 -0.91468,0.475422 -0.21704,0.475425 -0.21704,1.364257 v 1.90686 q 0,0.439251 -0.20153,0.666626 -0.19638,0.22221 -0.52194,0.22221 -0.32039,0 -0.5271,-0.22221 -0.20154,-0.227375 -0.20154,-0.666626 V 72.81037 q 0,-0.397909 0.18087,-0.604615 0.18604,-0.206706 0.48576,-0.206706 0.28939,0 0.48059,0.196371 0.19637,0.191202 0.19637,0.532268 v 0.134358 q 0.36691,-0.439251 0.78548,-0.645956 0.41858,-0.206706 0.93018,-0.206706 0.53227,0 0.91467,0.211873 0.38241,0.211876 0.63046,0.640789 0.35656,-0.434083 0.76481,-0.640789 0.40824,-0.211873 0.90433,-0.211873 0.57878,0 0.99736,0.227378 0.41858,0.227375 0.62528,0.651123 0.18087,0.382405 0.18087,1.204061 v 2.754351 q 0,0.444418 -0.20154,0.666626 -0.20154,0.22221 -0.53226,0.22221 -0.3204,0 -0.5271,-0.22221 -0.20154,-0.227375 -0.20154,-0.666626 v -2.371946 q 0,-0.454753 -0.0413,-0.728639 -0.0362,-0.273883 -0.20671,-0.45992 -0.17053,-0.186034 -0.51676,-0.186034 -0.27906,0 -0.53227,0.165365 -0.24805,0.165364 -0.38757,0.444415 -0.15503,0.356569 -0.15503,1.260905 z"
         id="path827-1-9-4-1-1-4"
         inkscape:connector-curvature="0"
         style="font-style:normal;font-variant:normal;font-weight:normal;font-stretch:normal;font-size:40px;line-height:1.25;font-family:'Arial Rounded MT Bold';-inkscape-font-specification:'Arial Rounded MT Bold, Normal';font-variant-ligatures:normal;font-variant-caps:normal;font-variant-numeric:normal;font-feature-settings:normal;text-align:start;letter-spacing:0px;word-spacing:0px;writing-mode:lr-tb;text-anchor:start;fill:#151515;fill-opacity:1;stroke:none;stroke-width:0.26458332" />
      <path
         d="m 165.96994,74.867089 q 0,0.630455 -0.19637,1.162722 -0.19637,0.532265 -0.56844,0.914673 -0.37207,0.382405 -0.88884,0.58911 -0.51676,0.201539 -1.16272,0.201539 -0.64079,0 -1.15238,-0.206706 -0.5116,-0.206706 -0.88884,-0.589111 -0.37207,-0.387574 -0.56844,-0.909505 -0.1912,-0.5271 -0.1912,-1.162722 0,-0.640785 0.19637,-1.173053 0.19637,-0.532267 0.56327,-0.909505 0.36691,-0.377238 0.88884,-0.578776 0.52193,-0.206706 1.15238,-0.206706 0.64079,0 1.16272,0.206706 0.52193,0.206706 0.894,0.589111 0.37207,0.382407 0.56328,0.909505 0.19637,0.5271 0.19637,1.162718 z m -1.41594,0 q 0,-0.862993 -0.3824,-1.343585 -0.37724,-0.480591 -1.01803,-0.480591 -0.41341,0 -0.72864,0.217043 -0.31522,0.211873 -0.48575,0.630451 -0.17054,0.418579 -0.17054,0.976682 0,0.55294 0.16537,0.966351 0.17053,0.413412 0.48059,0.635619 0.31522,0.217041 0.73897,0.217041 0.64079,0 1.01803,-0.48059 0.3824,-0.485759 0.3824,-1.338421 z"
         id="path829-3-2-1-9-3-4"
         inkscape:connector-curvature="0"
         style="font-style:normal;font-variant:normal;font-weight:normal;font-stretch:normal;font-size:40px;line-height:1.25;font-family:'Arial Rounded MT Bold';-inkscape-font-specification:'Arial Rounded MT Bold, Normal';font-variant-ligatures:normal;font-variant-caps:normal;font-variant-numeric:normal;font-feature-settings:normal;text-align:start;letter-spacing:0px;word-spacing:0px;writing-mode:lr-tb;text-anchor:start;fill:#151515;fill-opacity:1;stroke:none;stroke-width:0.26458332" />
      <path
         d="m 168.35739,72.779364 v 0.170532 q 0.37207,-0.490927 0.81132,-0.718302 0.44442,-0.232545 1.01803,-0.232545 0.5581,0 0.99735,0.24288 0.43925,0.242879 0.65629,0.687297 0.13953,0.258382 0.18087,0.558105 0.0413,0.299722 0.0413,0.764812 v 2.62516 q 0,0.423746 -0.19637,0.640789 -0.1912,0.217041 -0.50126,0.217041 -0.31523,0 -0.5116,-0.22221 -0.19637,-0.222208 -0.19637,-0.63562 v -2.351277 q 0,-0.697632 -0.19637,-1.064535 -0.1912,-0.37207 -0.76998,-0.37207 -0.37724,0 -0.6873,0.227378 -0.31006,0.222207 -0.45475,0.61495 -0.10335,0.315224 -0.10335,1.17822 v 1.767334 q 0,0.428914 -0.20154,0.645957 -0.19637,0.211873 -0.5116,0.211873 -0.30489,0 -0.50126,-0.22221 -0.19637,-0.222208 -0.19637,-0.63562 v -4.07727 q 0,-0.403074 0.1757,-0.599445 0.1757,-0.201539 0.48059,-0.201539 0.18604,0 0.3359,0.08785 0.14986,0.08785 0.23771,0.263551 0.093,0.1757 0.093,0.428914 z"
         id="path831-7-7-7-4-6-8"
         inkscape:connector-curvature="0"
         style="font-style:normal;font-variant:normal;font-weight:normal;font-stretch:normal;font-size:40px;line-height:1.25;font-family:'Arial Rounded MT Bold';-inkscape-font-specification:'Arial Rounded MT Bold, Normal';font-variant-ligatures:normal;font-variant-caps:normal;font-variant-numeric:normal;font-feature-settings:normal;text-align:start;letter-spacing:0px;word-spacing:0px;writing-mode:lr-tb;text-anchor:start;fill:#151515;fill-opacity:1;stroke:none;stroke-width:0.26458332" />
      <path
         d="m 179.21928,73.032578 v 4.09794 q 0,0.702799 -0.14986,1.209227 -0.14986,0.506431 -0.48059,0.837161 -0.33073,0.330729 -0.86816,0.490926 -0.53227,0.160195 -1.32809,0.160195 -0.72864,0 -1.30224,-0.206706 -0.57361,-0.201536 -0.88367,-0.527098 -0.31006,-0.320394 -0.31006,-0.661458 0,-0.258384 0.1757,-0.423749 0.1757,-0.160194 0.42375,-0.160194 0.31006,0 0.5426,0.273883 0.11369,0.139528 0.23255,0.279053 0.12402,0.144693 0.26871,0.24288 0.14986,0.103352 0.35657,0.14986 0.20671,0.05168 0.47542,0.05168 0.54777,0 0.8475,-0.15503 0.30489,-0.149862 0.42374,-0.423746 0.12403,-0.273886 0.1447,-0.589113 0.0207,-0.310057 0.031,-1.002522 -0.32556,0.454753 -0.75447,0.692465 -0.42375,0.237712 -1.01286,0.237712 -0.70797,0 -1.24023,-0.361736 -0.52711,-0.361735 -0.81133,-1.012859 -0.28422,-0.651121 -0.28422,-1.503783 0,-0.635618 0.17054,-1.147217 0.1757,-0.511595 0.49609,-0.862996 0.32039,-0.351399 0.73897,-0.527098 0.41858,-0.180869 0.91984,-0.180869 0.59945,0 1.0387,0.232545 0.43925,0.227375 0.81649,0.718301 v -0.191201 q 0,-0.366903 0.18087,-0.568441 0.18086,-0.201539 0.46508,-0.201539 0.40825,0 0.54261,0.268719 0.13435,0.263549 0.13435,0.76481 z m -4.0876,1.788003 q 0,0.857829 0.37207,1.29708 0.37724,0.439248 0.97152,0.439248 0.35139,0 0.66145,-0.186034 0.31523,-0.191204 0.5116,-0.568441 0.19637,-0.382405 0.19637,-0.925008 0,-0.862995 -0.3824,-1.343587 -0.37724,-0.480589 -0.99736,-0.480589 -0.60461,0 -0.97152,0.45992 -0.36173,0.45992 -0.36173,1.307411 z"
         id="path833-2-6-9-5-99-6"
         inkscape:connector-curvature="0"
         style="font-style:normal;font-variant:normal;font-weight:normal;font-stretch:normal;font-size:40px;line-height:1.25;font-family:'Arial Rounded MT Bold';-inkscape-font-specification:'Arial Rounded MT Bold, Normal';font-variant-ligatures:normal;font-variant-caps:normal;font-variant-numeric:normal;font-feature-settings:normal;text-align:start;letter-spacing:0px;word-spacing:0px;writing-mode:lr-tb;text-anchor:start;fill:#151515;fill-opacity:1;stroke:none;stroke-width:0.26458332" />
    </g>
    <g
       id="g876-0-3-5-4-4-6"
       transform="matrix(4.5954745,0,0,4.5954745,-654.88261,-144.85233)"
       style="fill:#151515;fill-opacity:1">
      <path
         d="m 148.73585,89.010559 h -1.67432 v 5.50354 q 0,0.475425 -0.21187,0.707967 -0.21188,0.227378 -0.54777,0.227378 -0.34107,0 -0.55811,-0.232545 -0.21187,-0.232543 -0.21187,-0.7028 v -5.50354 h -1.67432 q -0.39274,0 -0.58394,-0.170531 -0.1912,-0.1757 -0.1912,-0.45992 0,-0.294556 0.19637,-0.465088 0.20154,-0.170534 0.57877,-0.170534 h 4.87826 q 0.39791,0 0.58911,0.175702 0.19637,0.175699 0.19637,0.45992 0,0.28422 -0.19637,0.45992 -0.19637,0.170531 -0.58911,0.170531 z"
         style="font-style:normal;font-variant:normal;font-weight:normal;font-stretch:normal;font-size:40px;line-height:1.25;font-family:'Arial Rounded MT Bold';-inkscape-font-specification:'Arial Rounded MT Bold, Normal';font-variant-ligatures:normal;font-variant-caps:normal;font-variant-numeric:normal;font-feature-settings:normal;text-align:start;letter-spacing:0px;word-spacing:0px;writing-mode:lr-tb;text-anchor:start;fill:#151515;fill-opacity:1;stroke:none;stroke-width:0.26458332"
         id="path835-5-4-5-6-6-6"
         inkscape:connector-curvature="0" />
      <path
         d="m 153.36606,94.653627 q -0.5116,0.397907 -0.99219,0.599445 -0.47543,0.196372 -1.0697,0.196372 -0.54261,0 -0.95602,-0.211874 -0.40824,-0.217043 -0.63045,-0.583943 -0.22221,-0.366903 -0.22221,-0.795819 0,-0.578776 0.3669,-0.98702 0.36691,-0.408242 1.00769,-0.54777 0.13436,-0.03101 0.66663,-0.139525 0.53227,-0.108521 0.9095,-0.196371 0.38241,-0.09302 0.82683,-0.222208 -0.0258,-0.558107 -0.22738,-0.816488 -0.19637,-0.263549 -0.82165,-0.263549 -0.53744,0 -0.81132,0.14986 -0.26872,0.149863 -0.46509,0.449585 -0.1912,0.299723 -0.27389,0.39791 -0.0775,0.09302 -0.34106,0.09302 -0.23771,0 -0.41341,-0.149863 -0.17053,-0.155027 -0.17053,-0.392739 0,-0.372071 0.26355,-0.723472 0.26355,-0.351398 0.82165,-0.578776 0.55811,-0.227375 1.3901,-0.227375 0.93017,0 1.46244,0.222208 0.53227,0.21704 0.74931,0.692465 0.22221,0.475422 0.22221,1.260903 0,0.496094 -0.005,0.842328 0,0.346231 -0.005,0.769977 0,0.39791 0.12919,0.831993 0.13436,0.428913 0.13436,0.552937 0,0.21704 -0.20671,0.397909 -0.20154,0.1757 -0.45992,0.1757 -0.21704,0 -0.42891,-0.201539 -0.21188,-0.206706 -0.44959,-0.594278 z m -0.093,-2.041221 q -0.31006,0.113689 -0.90434,0.24288 -0.58911,0.124023 -0.81649,0.186036 -0.22737,0.05684 -0.43408,0.232543 -0.20671,0.170532 -0.20671,0.480592 0,0.320394 0.24288,0.547769 0.24288,0.222208 0.63563,0.222208 0.41857,0 0.76997,-0.180867 0.35657,-0.186034 0.52194,-0.475422 0.1912,-0.320394 0.1912,-1.0542 z"
         style="font-style:normal;font-variant:normal;font-weight:normal;font-stretch:normal;font-size:40px;line-height:1.25;font-family:'Arial Rounded MT Bold';-inkscape-font-specification:'Arial Rounded MT Bold, Normal';font-variant-ligatures:normal;font-variant-caps:normal;font-variant-numeric:normal;font-feature-settings:normal;text-align:start;letter-spacing:0px;word-spacing:0px;writing-mode:lr-tb;text-anchor:start;fill:#151515;fill-opacity:1;stroke:none;stroke-width:0.26458332"
         id="path837-2-6-6-5-6-0"
         inkscape:connector-curvature="0" />
      <path
         d="M 155.91203,94.605229 V 88.48674 q 0,-0.423746 0.18603,-0.640787 0.19121,-0.217043 0.5116,-0.217043 0.32039,0 0.51677,0.217043 0.19636,0.211873 0.19636,0.640787 v 6.118489 q 0,0.428913 -0.20153,0.645956 -0.19637,0.211874 -0.5116,0.211874 -0.31006,0 -0.50643,-0.222211 -0.1912,-0.222207 -0.1912,-0.635619 z"
         style="font-style:normal;font-variant:normal;font-weight:normal;font-stretch:normal;font-size:40px;line-height:1.25;font-family:'Arial Rounded MT Bold';-inkscape-font-specification:'Arial Rounded MT Bold, Normal';font-variant-ligatures:normal;font-variant-caps:normal;font-variant-numeric:normal;font-feature-settings:normal;text-align:start;letter-spacing:0px;word-spacing:0px;writing-mode:lr-tb;text-anchor:start;fill:#151515;fill-opacity:1;stroke:none;stroke-width:0.26458332"
         id="path839-5-2-6-2-2-5"
         inkscape:connector-curvature="0" />
      <path
         d="m 162.89002,92.939327 h -2.75952 q 0.005,0.480589 0.1912,0.847492 0.19121,0.366903 0.50126,0.552939 0.31523,0.186034 0.69247,0.186034 0.25321,0 0.45992,-0.05684 0.21187,-0.06201 0.40824,-0.186036 0.19637,-0.129191 0.36174,-0.273884 0.16536,-0.144695 0.42891,-0.392742 0.10852,-0.09302 0.31006,-0.09302 0.21704,0 0.3514,0.118856 0.13436,0.118856 0.13436,0.335897 0,0.191203 -0.14986,0.449585 -0.14986,0.253214 -0.45475,0.490926 -0.29973,0.232543 -0.75965,0.387573 -0.45475,0.15503 -1.04903,0.15503 -1.35909,0 -2.11356,-0.775148 -0.75448,-0.775147 -0.75448,-2.103231 0,-0.625284 0.18603,-1.157552 0.18604,-0.537435 0.54261,-0.91984 0.35656,-0.382405 0.87849,-0.583943 0.52194,-0.206706 1.15756,-0.206706 0.82682,0 1.41593,0.351399 0.59428,0.346233 0.88884,0.89917 0.29455,0.552937 0.29455,1.126546 0,0.532267 -0.30489,0.692465 -0.30489,0.15503 -0.85783,0.15503 z M 160.1305,92.13834 h 2.55798 q -0.0517,-0.723468 -0.39274,-1.080037 -0.33589,-0.361733 -0.88883,-0.361733 -0.5271,0 -0.86817,0.366901 -0.33589,0.361735 -0.40824,1.074869 z"
         style="font-style:normal;font-variant:normal;font-weight:normal;font-stretch:normal;font-size:40px;line-height:1.25;font-family:'Arial Rounded MT Bold';-inkscape-font-specification:'Arial Rounded MT Bold, Normal';font-variant-ligatures:normal;font-variant-caps:normal;font-variant-numeric:normal;font-feature-settings:normal;text-align:start;letter-spacing:0px;word-spacing:0px;writing-mode:lr-tb;text-anchor:start;fill:#151515;fill-opacity:1;stroke:none;stroke-width:0.26458332"
         id="path841-0-8-1-3-4-9"
         inkscape:connector-curvature="0" />
      <path
         d="m 166.51771,90.479974 v 0.170532 q 0.37207,-0.490926 0.81132,-0.718301 0.44441,-0.232545 1.01802,-0.232545 0.55811,0 0.99736,0.242879 0.43925,0.24288 0.65629,0.687298 0.13952,0.258382 0.18087,0.558104 0.0413,0.299723 0.0413,0.764813 v 2.625161 q 0,0.423746 -0.19637,0.640789 -0.19121,0.217041 -0.50126,0.217041 -0.31523,0 -0.5116,-0.222211 -0.19637,-0.222207 -0.19637,-0.635619 v -2.351278 q 0,-0.697632 -0.19637,-1.064535 -0.1912,-0.37207 -0.76998,-0.37207 -0.37724,0 -0.6873,0.227377 -0.31006,0.222208 -0.45475,0.61495 -0.10335,0.315225 -0.10335,1.178221 v 1.767335 q 0,0.428913 -0.20154,0.645956 -0.19637,0.211874 -0.5116,0.211874 -0.30489,0 -0.50126,-0.222211 -0.19637,-0.222207 -0.19637,-0.635619 v -4.077271 q 0,-0.403075 0.1757,-0.599446 0.1757,-0.201538 0.48059,-0.201538 0.18604,0 0.3359,0.08785 0.14986,0.08785 0.23771,0.263551 0.093,0.175699 0.093,0.428913 z"
         style="font-style:normal;font-variant:normal;font-weight:normal;font-stretch:normal;font-size:40px;line-height:1.25;font-family:'Arial Rounded MT Bold';-inkscape-font-specification:'Arial Rounded MT Bold, Normal';font-variant-ligatures:normal;font-variant-caps:normal;font-variant-numeric:normal;font-feature-settings:normal;text-align:start;letter-spacing:0px;word-spacing:0px;writing-mode:lr-tb;text-anchor:start;fill:#151515;fill-opacity:1;stroke:none;stroke-width:0.26458332"
         id="path843-9-1-7-8-6-9"
         inkscape:connector-curvature="0" />
      <path
         d="m 171.82994,87.366953 h 0.15503 v -0.847492 q 0,-0.341066 0.0155,-0.532267 0.0207,-0.196371 0.10335,-0.335897 0.0827,-0.144695 0.23771,-0.232545 0.15503,-0.09302 0.34624,-0.09302 0.26871,0 0.48575,0.201539 0.1447,0.134358 0.18087,0.330729 0.0413,0.191201 0.0413,0.547769 v 0.961181 h 0.51677 q 0.29972,0 0.45475,0.144696 0.1602,0.139525 0.1602,0.361733 0,0.28422 -0.22738,0.397909 -0.22221,0.113689 -0.64079,0.113689 h -0.26355 v 2.594155 q 0,0.330729 0.0207,0.511598 0.0258,0.175699 0.12402,0.289388 0.10335,0.108519 0.33073,0.108519 0.12402,0 0.3359,-0.04134 0.21187,-0.04651 0.33072,-0.04651 0.17054,0 0.30489,0.139528 0.13953,0.134358 0.13953,0.335896 0,0.341064 -0.37207,0.52193 -0.37207,0.18087 -1.0697,0.18087 -0.66146,0 -1.00253,-0.222211 -0.34106,-0.222207 -0.44958,-0.614947 -0.10335,-0.392742 -0.10335,-1.049033 v -2.707844 h -0.18604 q -0.30489,0 -0.46509,-0.144695 -0.16019,-0.144693 -0.16019,-0.366903 0,-0.222208 0.16536,-0.361733 0.17053,-0.144696 0.49093,-0.144696 z"
         style="font-style:normal;font-variant:normal;font-weight:normal;font-stretch:normal;font-size:40px;line-height:1.25;font-family:'Arial Rounded MT Bold';-inkscape-font-specification:'Arial Rounded MT Bold, Normal';font-variant-ligatures:normal;font-variant-caps:normal;font-variant-numeric:normal;font-feature-settings:normal;text-align:start;letter-spacing:0px;word-spacing:0px;writing-mode:lr-tb;text-anchor:start;fill:#151515;fill-opacity:1;stroke:none;stroke-width:0.26458332"
         id="path845-5-5-6-3-4-4"
         inkscape:connector-curvature="0" />
      <path
         d="m 180.14093,93.617958 q 0,0.583943 -0.28422,1.002522 -0.28422,0.413411 -0.84233,0.630454 -0.55293,0.211874 -1.34875,0.211874 -0.75964,0 -1.30225,-0.232545 -0.5426,-0.232543 -0.80098,-0.578776 -0.25838,-0.351399 -0.25838,-0.7028 0,-0.232542 0.16536,-0.397907 0.16537,-0.165364 0.41858,-0.165364 0.22221,0 0.34107,0.108518 0.11885,0.108522 0.22737,0.304893 0.21704,0.377238 0.51677,0.563272 0.30489,0.186036 0.82682,0.186036 0.42374,0 0.69246,-0.186036 0.27389,-0.191202 0.27389,-0.434081 0,-0.37207 -0.28422,-0.542602 -0.27905,-0.170535 -0.92501,-0.325562 -0.72864,-0.180869 -1.18856,-0.377238 -0.45475,-0.201538 -0.72864,-0.5271 -0.27388,-0.325562 -0.27388,-0.800986 0,-0.423747 0.25321,-0.800984 0.25322,-0.377238 0.74414,-0.599445 0.4961,-0.227378 1.19373,-0.227378 0.54777,0 0.98185,0.113689 0.43925,0.113689 0.72864,0.30489 0.29456,0.191203 0.44442,0.423746 0.15503,0.232545 0.15503,0.454752 0,0.24288 -0.16537,0.39791 -0.1602,0.15503 -0.45992,0.15503 -0.21704,0 -0.37207,-0.124024 -0.14986,-0.124023 -0.34623,-0.37207 -0.1602,-0.206706 -0.37724,-0.330729 -0.21704,-0.124023 -0.58911,-0.124023 -0.38241,0 -0.63562,0.165364 -0.25321,0.160197 -0.25321,0.403077 0,0.222208 0.18603,0.3669 0.18604,0.139528 0.50126,0.232545 0.31523,0.09302 0.86816,0.227378 0.6563,0.160194 1.06971,0.382405 0.41858,0.222207 0.63045,0.5271 0.21704,0.299723 0.21704,0.687295 z"
         style="font-style:normal;font-variant:normal;font-weight:normal;font-stretch:normal;font-size:40px;line-height:1.25;font-family:'Arial Rounded MT Bold';-inkscape-font-specification:'Arial Rounded MT Bold, Normal';font-variant-ligatures:normal;font-variant-caps:normal;font-variant-numeric:normal;font-feature-settings:normal;text-align:start;letter-spacing:0px;word-spacing:0px;writing-mode:lr-tb;text-anchor:start;fill:#151515;fill-opacity:1;stroke:none;stroke-width:0.26458332"
         id="path847-8-8-1-0-6-1"
         inkscape:connector-curvature="0" />
    </g>
    <g
       transform="matrix(4.5954745,0,0,4.5954745,-648.77982,-102.41676)"
       id="g867-5-0-5-9-8-0-9"
       style="fill:#151515;fill-opacity:1">
      <path
         d="m 148.6635,76.748113 -0.36173,-0.950847 h -3.07992 l -0.36173,0.971516 q -0.21188,0.568441 -0.36174,0.76998 -0.14986,0.196371 -0.49093,0.196371 -0.28938,0 -0.51159,-0.211873 -0.22221,-0.211873 -0.22221,-0.480592 0,-0.15503 0.0517,-0.320395 0.0517,-0.165364 0.17053,-0.459919 l 1.93786,-4.919596 q 0.0827,-0.211873 0.19638,-0.506428 0.11885,-0.299723 0.24804,-0.496094 0.13436,-0.19637 0.34623,-0.315226 0.21704,-0.124024 0.53227,-0.124024 0.3204,0 0.53227,0.124024 0.21704,0.118856 0.34623,0.310058 0.13436,0.191202 0.22221,0.413412 0.093,0.217041 0.23254,0.583944 l 1.97921,4.888588 q 0.23254,0.558107 0.23254,0.811321 0,0.263549 -0.22221,0.485759 -0.21704,0.217041 -0.5271,0.217041 -0.18086,0 -0.31005,-0.06718 -0.12919,-0.06201 -0.21704,-0.170531 -0.0879,-0.113689 -0.19121,-0.341064 -0.0982,-0.232545 -0.17053,-0.408244 z m -3.03857,-2.103231 h 2.26342 l -1.14204,-3.126424 z"
         id="path825-4-2-0-7-9-4-4"
         inkscape:connector-curvature="0"
         style="font-style:normal;font-variant:normal;font-weight:normal;font-stretch:normal;font-size:40px;line-height:1.25;font-family:'Arial Rounded MT Bold';-inkscape-font-specification:'Arial Rounded MT Bold, Normal';font-variant-ligatures:normal;font-variant-caps:normal;font-variant-numeric:normal;font-feature-settings:normal;text-align:start;letter-spacing:0px;word-spacing:0px;writing-mode:lr-tb;text-anchor:start;fill:#151515;fill-opacity:1;stroke:none;stroke-width:0.26458332" />
      <path
         d="m 156.01706,74.970443 v 1.875854 q 0,0.444418 -0.20154,0.666626 -0.20154,0.22221 -0.53227,0.22221 -0.32039,0 -0.52193,-0.22221 -0.19637,-0.222208 -0.19637,-0.666626 v -2.247924 q 0,-0.532266 -0.0362,-0.826822 -0.0362,-0.294555 -0.19637,-0.480592 -0.1602,-0.191201 -0.50643,-0.191201 -0.69247,0 -0.91468,0.475422 -0.21704,0.475425 -0.21704,1.364257 v 1.90686 q 0,0.439251 -0.20153,0.666626 -0.19638,0.22221 -0.52194,0.22221 -0.32039,0 -0.5271,-0.22221 -0.20154,-0.227375 -0.20154,-0.666626 V 72.81037 q 0,-0.397909 0.18087,-0.604615 0.18604,-0.206706 0.48576,-0.206706 0.28939,0 0.48059,0.196371 0.19637,0.191202 0.19637,0.532268 v 0.134358 q 0.36691,-0.439251 0.78548,-0.645956 0.41858,-0.206706 0.93018,-0.206706 0.53227,0 0.91467,0.211873 0.38241,0.211876 0.63046,0.640789 0.35656,-0.434083 0.76481,-0.640789 0.40824,-0.211873 0.90433,-0.211873 0.57878,0 0.99736,0.227378 0.41858,0.227375 0.62528,0.651123 0.18087,0.382405 0.18087,1.204061 v 2.754351 q 0,0.444418 -0.20154,0.666626 -0.20154,0.22221 -0.53226,0.22221 -0.3204,0 -0.5271,-0.22221 -0.20154,-0.227375 -0.20154,-0.666626 v -2.371946 q 0,-0.454753 -0.0413,-0.728639 -0.0362,-0.273883 -0.20671,-0.45992 -0.17053,-0.186034 -0.51676,-0.186034 -0.27906,0 -0.53227,0.165365 -0.24805,0.165364 -0.38757,0.444415 -0.15503,0.356569 -0.15503,1.260905 z"
         id="path827-1-9-4-1-9-3-6"
         inkscape:connector-curvature="0"
         style="font-style:normal;font-variant:normal;font-weight:normal;font-stretch:normal;font-size:40px;line-height:1.25;font-family:'Arial Rounded MT Bold';-inkscape-font-specification:'Arial Rounded MT Bold, Normal';font-variant-ligatures:normal;font-variant-caps:normal;font-variant-numeric:normal;font-feature-settings:normal;text-align:start;letter-spacing:0px;word-spacing:0px;writing-mode:lr-tb;text-anchor:start;fill:#151515;fill-opacity:1;stroke:none;stroke-width:0.26458332" />
      <path
         d="m 165.96994,74.867089 q 0,0.630455 -0.19637,1.162722 -0.19637,0.532265 -0.56844,0.914673 -0.37207,0.382405 -0.88884,0.58911 -0.51676,0.201539 -1.16272,0.201539 -0.64079,0 -1.15238,-0.206706 -0.5116,-0.206706 -0.88884,-0.589111 -0.37207,-0.387574 -0.56844,-0.909505 -0.1912,-0.5271 -0.1912,-1.162722 0,-0.640785 0.19637,-1.173053 0.19637,-0.532267 0.56327,-0.909505 0.36691,-0.377238 0.88884,-0.578776 0.52193,-0.206706 1.15238,-0.206706 0.64079,0 1.16272,0.206706 0.52193,0.206706 0.894,0.589111 0.37207,0.382407 0.56328,0.909505 0.19637,0.5271 0.19637,1.162718 z m -1.41594,0 q 0,-0.862993 -0.3824,-1.343585 -0.37724,-0.480591 -1.01803,-0.480591 -0.41341,0 -0.72864,0.217043 -0.31522,0.211873 -0.48575,0.630451 -0.17054,0.418579 -0.17054,0.976682 0,0.55294 0.16537,0.966351 0.17053,0.413412 0.48059,0.635619 0.31522,0.217041 0.73897,0.217041 0.64079,0 1.01803,-0.48059 0.3824,-0.485759 0.3824,-1.338421 z"
         id="path829-3-2-1-9-7-9-5"
         inkscape:connector-curvature="0"
         style="font-style:normal;font-variant:normal;font-weight:normal;font-stretch:normal;font-size:40px;line-height:1.25;font-family:'Arial Rounded MT Bold';-inkscape-font-specification:'Arial Rounded MT Bold, Normal';font-variant-ligatures:normal;font-variant-caps:normal;font-variant-numeric:normal;font-feature-settings:normal;text-align:start;letter-spacing:0px;word-spacing:0px;writing-mode:lr-tb;text-anchor:start;fill:#151515;fill-opacity:1;stroke:none;stroke-width:0.26458332" />
      <path
         d="m 168.35739,72.779364 v 0.170532 q 0.37207,-0.490927 0.81132,-0.718302 0.44442,-0.232545 1.01803,-0.232545 0.5581,0 0.99735,0.24288 0.43925,0.242879 0.65629,0.687297 0.13953,0.258382 0.18087,0.558105 0.0413,0.299722 0.0413,0.764812 v 2.62516 q 0,0.423746 -0.19637,0.640789 -0.1912,0.217041 -0.50126,0.217041 -0.31523,0 -0.5116,-0.22221 -0.19637,-0.222208 -0.19637,-0.63562 v -2.351277 q 0,-0.697632 -0.19637,-1.064535 -0.1912,-0.37207 -0.76998,-0.37207 -0.37724,0 -0.6873,0.227378 -0.31006,0.222207 -0.45475,0.61495 -0.10335,0.315224 -0.10335,1.17822 v 1.767334 q 0,0.428914 -0.20154,0.645957 -0.19637,0.211873 -0.5116,0.211873 -0.30489,0 -0.50126,-0.22221 -0.19637,-0.222208 -0.19637,-0.63562 v -4.07727 q 0,-0.403074 0.1757,-0.599445 0.1757,-0.201539 0.48059,-0.201539 0.18604,0 0.3359,0.08785 0.14986,0.08785 0.23771,0.263551 0.093,0.1757 0.093,0.428914 z"
         id="path831-7-7-7-4-7-2-1"
         inkscape:connector-curvature="0"
         style="font-style:normal;font-variant:normal;font-weight:normal;font-stretch:normal;font-size:40px;line-height:1.25;font-family:'Arial Rounded MT Bold';-inkscape-font-specification:'Arial Rounded MT Bold, Normal';font-variant-ligatures:normal;font-variant-caps:normal;font-variant-numeric:normal;font-feature-settings:normal;text-align:start;letter-spacing:0px;word-spacing:0px;writing-mode:lr-tb;text-anchor:start;fill:#151515;fill-opacity:1;stroke:none;stroke-width:0.26458332" />
      <path
         d="m 179.21928,73.032578 v 4.09794 q 0,0.702799 -0.14986,1.209227 -0.14986,0.506431 -0.48059,0.837161 -0.33073,0.330729 -0.86816,0.490926 -0.53227,0.160195 -1.32809,0.160195 -0.72864,0 -1.30224,-0.206706 -0.57361,-0.201536 -0.88367,-0.527098 -0.31006,-0.320394 -0.31006,-0.661458 0,-0.258384 0.1757,-0.423749 0.1757,-0.160194 0.42375,-0.160194 0.31006,0 0.5426,0.273883 0.11369,0.139528 0.23255,0.279053 0.12402,0.144693 0.26871,0.24288 0.14986,0.103352 0.35657,0.14986 0.20671,0.05168 0.47542,0.05168 0.54777,0 0.8475,-0.15503 0.30489,-0.149862 0.42374,-0.423746 0.12403,-0.273886 0.1447,-0.589113 0.0207,-0.310057 0.031,-1.002522 -0.32556,0.454753 -0.75447,0.692465 -0.42375,0.237712 -1.01286,0.237712 -0.70797,0 -1.24023,-0.361736 -0.52711,-0.361735 -0.81133,-1.012859 -0.28422,-0.651121 -0.28422,-1.503783 0,-0.635618 0.17054,-1.147217 0.1757,-0.511595 0.49609,-0.862996 0.32039,-0.351399 0.73897,-0.527098 0.41858,-0.180869 0.91984,-0.180869 0.59945,0 1.0387,0.232545 0.43925,0.227375 0.81649,0.718301 v -0.191201 q 0,-0.366903 0.18087,-0.568441 0.18086,-0.201539 0.46508,-0.201539 0.40825,0 0.54261,0.268719 0.13435,0.263549 0.13435,0.76481 z m -4.0876,1.788003 q 0,0.857829 0.37207,1.29708 0.37724,0.439248 0.97152,0.439248 0.35139,0 0.66145,-0.186034 0.31523,-0.191204 0.5116,-0.568441 0.19637,-0.382405 0.19637,-0.925008 0,-0.862995 -0.3824,-1.343587 -0.37724,-0.480589 -0.99736,-0.480589 -0.60461,0 -0.97152,0.45992 -0.36173,0.45992 -0.36173,1.307411 z"
         id="path833-2-6-9-5-1-5-7"
         inkscape:connector-curvature="0"
         style="font-style:normal;font-variant:normal;font-weight:normal;font-stretch:normal;font-size:40px;line-height:1.25;font-family:'Arial Rounded MT Bold';-inkscape-font-specification:'Arial Rounded MT Bold, Normal';font-variant-ligatures:normal;font-variant-caps:normal;font-variant-numeric:normal;font-feature-settings:normal;text-align:start;letter-spacing:0px;word-spacing:0px;writing-mode:lr-tb;text-anchor:start;fill:#151515;fill-opacity:1;stroke:none;stroke-width:0.26458332" />
    </g>
    <g
       id="g876-0-3-5-4-8-4-4"
       transform="matrix(4.5954745,0,0,4.5954745,-654.88261,-144.85233)"
       style="fill:#151515;fill-opacity:1">
      <path
         d="m 148.73585,89.010559 h -1.67432 v 5.50354 q 0,0.475425 -0.21187,0.707967 -0.21188,0.227378 -0.54777,0.227378 -0.34107,0 -0.55811,-0.232545 -0.21187,-0.232543 -0.21187,-0.7028 v -5.50354 h -1.67432 q -0.39274,0 -0.58394,-0.170531 -0.1912,-0.1757 -0.1912,-0.45992 0,-0.294556 0.19637,-0.465088 0.20154,-0.170534 0.57877,-0.170534 h 4.87826 q 0.39791,0 0.58911,0.175702 0.19637,0.175699 0.19637,0.45992 0,0.28422 -0.19637,0.45992 -0.19637,0.170531 -0.58911,0.170531 z"
         style="font-style:normal;font-variant:normal;font-weight:normal;font-stretch:normal;font-size:40px;line-height:1.25;font-family:'Arial Rounded MT Bold';-inkscape-font-specification:'Arial Rounded MT Bold, Normal';font-variant-ligatures:normal;font-variant-caps:normal;font-variant-numeric:normal;font-feature-settings:normal;text-align:start;letter-spacing:0px;word-spacing:0px;writing-mode:lr-tb;text-anchor:start;fill:#151515;fill-opacity:1;stroke:none;stroke-width:0.26458332"
         id="path835-5-4-5-6-5-1-1"
         inkscape:connector-curvature="0" />
      <path
         d="m 152.90304,94.653627 q -0.5116,0.397907 -0.99219,0.599445 -0.47543,0.196372 -1.0697,0.196372 -0.54261,0 -0.95602,-0.211874 -0.40824,-0.217043 -0.63045,-0.583943 -0.22221,-0.366903 -0.22221,-0.795819 0,-0.578776 0.3669,-0.98702 0.36691,-0.408242 1.00769,-0.54777 0.13436,-0.03101 0.66663,-0.139525 0.53227,-0.108521 0.9095,-0.196371 0.38241,-0.09302 0.82683,-0.222208 -0.0258,-0.558107 -0.22738,-0.816488 -0.19637,-0.263549 -0.82165,-0.263549 -0.53744,0 -0.81132,0.14986 -0.26872,0.149863 -0.46509,0.449585 -0.1912,0.299723 -0.27389,0.39791 -0.0775,0.09302 -0.34106,0.09302 -0.23771,0 -0.41341,-0.149863 -0.17053,-0.155027 -0.17053,-0.392739 0,-0.372071 0.26355,-0.723472 0.26355,-0.351398 0.82165,-0.578776 0.55811,-0.227375 1.3901,-0.227375 0.93017,0 1.46244,0.222208 0.53227,0.21704 0.74931,0.692465 0.22221,0.475422 0.22221,1.260903 0,0.496094 -0.005,0.842328 0,0.346231 -0.005,0.769977 0,0.39791 0.12919,0.831993 0.13436,0.428913 0.13436,0.552937 0,0.21704 -0.20671,0.397909 -0.20154,0.1757 -0.45992,0.1757 -0.21704,0 -0.42891,-0.201539 -0.21188,-0.206706 -0.44959,-0.594278 z m -0.093,-2.041221 q -0.31006,0.113689 -0.90434,0.24288 -0.58911,0.124023 -0.81649,0.186036 -0.22737,0.05684 -0.43408,0.232543 -0.20671,0.170532 -0.20671,0.480592 0,0.320394 0.24288,0.547769 0.24288,0.222208 0.63563,0.222208 0.41857,0 0.76997,-0.180867 0.35657,-0.186034 0.52194,-0.475422 0.1912,-0.320394 0.1912,-1.0542 z"
         style="font-style:normal;font-variant:normal;font-weight:normal;font-stretch:normal;font-size:40px;line-height:1.25;font-family:'Arial Rounded MT Bold';-inkscape-font-specification:'Arial Rounded MT Bold, Normal';font-variant-ligatures:normal;font-variant-caps:normal;font-variant-numeric:normal;font-feature-settings:normal;text-align:start;letter-spacing:0px;word-spacing:0px;writing-mode:lr-tb;text-anchor:start;fill:#151515;fill-opacity:1;stroke:none;stroke-width:0.26458332"
         id="path837-2-6-6-5-0-02-1"
         inkscape:connector-curvature="0" />
      <path
         d="M 155.91203,94.605229 V 88.48674 q 0,-0.423746 0.18603,-0.640787 0.19121,-0.217043 0.5116,-0.217043 0.32039,0 0.51677,0.217043 0.19636,0.211873 0.19636,0.640787 v 6.118489 q 0,0.428913 -0.20153,0.645956 -0.19637,0.211874 -0.5116,0.211874 -0.31006,0 -0.50643,-0.222211 -0.1912,-0.222207 -0.1912,-0.635619 z"
         style="font-style:normal;font-variant:normal;font-weight:normal;font-stretch:normal;font-size:40px;line-height:1.25;font-family:'Arial Rounded MT Bold';-inkscape-font-specification:'Arial Rounded MT Bold, Normal';font-variant-ligatures:normal;font-variant-caps:normal;font-variant-numeric:normal;font-feature-settings:normal;text-align:start;letter-spacing:0px;word-spacing:0px;writing-mode:lr-tb;text-anchor:start;fill:#151515;fill-opacity:1;stroke:none;stroke-width:0.26458332"
         id="path839-5-2-6-2-1-2-9"
         inkscape:connector-curvature="0" />
      <path
         d="m 162.89002,92.939327 h -2.75952 q 0.005,0.480589 0.1912,0.847492 0.19121,0.366903 0.50126,0.552939 0.31523,0.186034 0.69247,0.186034 0.25321,0 0.45992,-0.05684 0.21187,-0.06201 0.40824,-0.186036 0.19637,-0.129191 0.36174,-0.273884 0.16536,-0.144695 0.42891,-0.392742 0.10852,-0.09302 0.31006,-0.09302 0.21704,0 0.3514,0.118856 0.13436,0.118856 0.13436,0.335897 0,0.191203 -0.14986,0.449585 -0.14986,0.253214 -0.45475,0.490926 -0.29973,0.232543 -0.75965,0.387573 -0.45475,0.15503 -1.04903,0.15503 -1.35909,0 -2.11356,-0.775148 -0.75448,-0.775147 -0.75448,-2.103231 0,-0.625284 0.18603,-1.157552 0.18604,-0.537435 0.54261,-0.91984 0.35656,-0.382405 0.87849,-0.583943 0.52194,-0.206706 1.15756,-0.206706 0.82682,0 1.41593,0.351399 0.59428,0.346233 0.88884,0.89917 0.29455,0.552937 0.29455,1.126546 0,0.532267 -0.30489,0.692465 -0.30489,0.15503 -0.85783,0.15503 z M 160.1305,92.13834 h 2.55798 q -0.0517,-0.723468 -0.39274,-1.080037 -0.33589,-0.361733 -0.88883,-0.361733 -0.5271,0 -0.86817,0.366901 -0.33589,0.361735 -0.40824,1.074869 z"
         style="font-style:normal;font-variant:normal;font-weight:normal;font-stretch:normal;font-size:40px;line-height:1.25;font-family:'Arial Rounded MT Bold';-inkscape-font-specification:'Arial Rounded MT Bold, Normal';font-variant-ligatures:normal;font-variant-caps:normal;font-variant-numeric:normal;font-feature-settings:normal;text-align:start;letter-spacing:0px;word-spacing:0px;writing-mode:lr-tb;text-anchor:start;fill:#151515;fill-opacity:1;stroke:none;stroke-width:0.26458332"
         id="path841-0-8-1-3-9-2-4"
         inkscape:connector-curvature="0" />
      <path
         d="m 166.51771,90.479974 v 0.170532 q 0.37207,-0.490926 0.81132,-0.718301 0.44441,-0.232545 1.01802,-0.232545 0.55811,0 0.99736,0.242879 0.43925,0.24288 0.65629,0.687298 0.13952,0.258382 0.18087,0.558104 0.0413,0.299723 0.0413,0.764813 v 2.625161 q 0,0.423746 -0.19637,0.640789 -0.19121,0.217041 -0.50126,0.217041 -0.31523,0 -0.5116,-0.222211 -0.19637,-0.222207 -0.19637,-0.635619 v -2.351278 q 0,-0.697632 -0.19637,-1.064535 -0.1912,-0.37207 -0.76998,-0.37207 -0.37724,0 -0.6873,0.227377 -0.31006,0.222208 -0.45475,0.61495 -0.10335,0.315225 -0.10335,1.178221 v 1.767335 q 0,0.428913 -0.20154,0.645956 -0.19637,0.211874 -0.5116,0.211874 -0.30489,0 -0.50126,-0.222211 -0.19637,-0.222207 -0.19637,-0.635619 v -4.077271 q 0,-0.403075 0.1757,-0.599446 0.1757,-0.201538 0.48059,-0.201538 0.18604,0 0.3359,0.08785 0.14986,0.08785 0.23771,0.263551 0.093,0.175699 0.093,0.428913 z"
         style="font-style:normal;font-variant:normal;font-weight:normal;font-stretch:normal;font-size:40px;line-height:1.25;font-family:'Arial Rounded MT Bold';-inkscape-font-specification:'Arial Rounded MT Bold, Normal';font-variant-ligatures:normal;font-variant-caps:normal;font-variant-numeric:normal;font-feature-settings:normal;text-align:start;letter-spacing:0px;word-spacing:0px;writing-mode:lr-tb;text-anchor:start;fill:#151515;fill-opacity:1;stroke:none;stroke-width:0.26458332"
         id="path843-9-1-7-8-8-9-2"
         inkscape:connector-curvature="0" />
      <path
         d="m 171.82994,87.366953 h 0.15503 v -0.847492 q 0,-0.341066 0.0155,-0.532267 0.0207,-0.196371 0.10335,-0.335897 0.0827,-0.144695 0.23771,-0.232545 0.15503,-0.09302 0.34624,-0.09302 0.26871,0 0.48575,0.201539 0.1447,0.134358 0.18087,0.330729 0.0413,0.191201 0.0413,0.547769 v 0.961181 h 0.51677 q 0.29972,0 0.45475,0.144696 0.1602,0.139525 0.1602,0.361733 0,0.28422 -0.22738,0.397909 -0.22221,0.113689 -0.64079,0.113689 h -0.26355 v 2.594155 q 0,0.330729 0.0207,0.511598 0.0258,0.175699 0.12402,0.289388 0.10335,0.108519 0.33073,0.108519 0.12402,0 0.3359,-0.04134 0.21187,-0.04651 0.33072,-0.04651 0.17054,0 0.30489,0.139528 0.13953,0.134358 0.13953,0.335896 0,0.341064 -0.37207,0.52193 -0.37207,0.18087 -1.0697,0.18087 -0.66146,0 -1.00253,-0.222211 -0.34106,-0.222207 -0.44958,-0.614947 -0.10335,-0.392742 -0.10335,-1.049033 v -2.707844 h -0.18604 q -0.30489,0 -0.46509,-0.144695 -0.16019,-0.144693 -0.16019,-0.366903 0,-0.222208 0.16536,-0.361733 0.17053,-0.144696 0.49093,-0.144696 z"
         style="font-style:normal;font-variant:normal;font-weight:normal;font-stretch:normal;font-size:40px;line-height:1.25;font-family:'Arial Rounded MT Bold';-inkscape-font-specification:'Arial Rounded MT Bold, Normal';font-variant-ligatures:normal;font-variant-caps:normal;font-variant-numeric:normal;font-feature-settings:normal;text-align:start;letter-spacing:0px;word-spacing:0px;writing-mode:lr-tb;text-anchor:start;fill:#151515;fill-opacity:1;stroke:none;stroke-width:0.26458332"
         id="path845-5-5-6-3-8-9-3"
         inkscape:connector-curvature="0" />
      <path
         d="m 180.14093,93.617958 q 0,0.583943 -0.28422,1.002522 -0.28422,0.413411 -0.84233,0.630454 -0.55293,0.211874 -1.34875,0.211874 -0.75964,0 -1.30225,-0.232545 -0.5426,-0.232543 -0.80098,-0.578776 -0.25838,-0.351399 -0.25838,-0.7028 0,-0.232542 0.16536,-0.397907 0.16537,-0.165364 0.41858,-0.165364 0.22221,0 0.34107,0.108518 0.11885,0.108522 0.22737,0.304893 0.21704,0.377238 0.51677,0.563272 0.30489,0.186036 0.82682,0.186036 0.42374,0 0.69246,-0.186036 0.27389,-0.191202 0.27389,-0.434081 0,-0.37207 -0.28422,-0.542602 -0.27905,-0.170535 -0.92501,-0.325562 -0.72864,-0.180869 -1.18856,-0.377238 -0.45475,-0.201538 -0.72864,-0.5271 -0.27388,-0.325562 -0.27388,-0.800986 0,-0.423747 0.25321,-0.800984 0.25322,-0.377238 0.74414,-0.599445 0.4961,-0.227378 1.19373,-0.227378 0.54777,0 0.98185,0.113689 0.43925,0.113689 0.72864,0.30489 0.29456,0.191203 0.44442,0.423746 0.15503,0.232545 0.15503,0.454752 0,0.24288 -0.16537,0.39791 -0.1602,0.15503 -0.45992,0.15503 -0.21704,0 -0.37207,-0.124024 -0.14986,-0.124023 -0.34623,-0.37207 -0.1602,-0.206706 -0.37724,-0.330729 -0.21704,-0.124023 -0.58911,-0.124023 -0.38241,0 -0.63562,0.165364 -0.25321,0.160197 -0.25321,0.403077 0,0.222208 0.18603,0.3669 0.18604,0.139528 0.50126,0.232545 0.31523,0.09302 0.86816,0.227378 0.6563,0.160194 1.06971,0.382405 0.41858,0.222207 0.63045,0.5271 0.21704,0.299723 0.21704,0.687295 z"
         style="font-style:normal;font-variant:normal;font-weight:normal;font-stretch:normal;font-size:40px;line-height:1.25;font-family:'Arial Rounded MT Bold';-inkscape-font-specification:'Arial Rounded MT Bold, Normal';font-variant-ligatures:normal;font-variant-caps:normal;font-variant-numeric:normal;font-feature-settings:normal;text-align:start;letter-spacing:0px;word-spacing:0px;writing-mode:lr-tb;text-anchor:start;fill:#151515;fill-opacity:1;stroke:none;stroke-width:0.26458332"
         id="path847-8-8-1-0-4-5-6"
         inkscape:connector-curvature="0" />
    </g>
  </g>
</svg>
