<?xml version="1.0" encoding="UTF-8"?>
<svg width="177mm" height="80mm" version="1.1" viewBox="0 0 177 80" xmlns="http://www.w3.org/2000/svg" xmlns:cc="http://creativecommons.org/ns#" xmlns:dc="http://purl.org/dc/elements/1.1/" xmlns:rdf="http://www.w3.org/1999/02/22-rdf-syntax-ns#">
 <metadata>
  <rdf:RDF>
   <cc:Work rdf:about="">
    <dc:format>image/svg+xml</dc:format>
    <dc:type rdf:resource="http://purl.org/dc/dcmitype/StillImage"/>
    <dc:title/>
   </cc:Work>
  </rdf:RDF>
 </metadata>
 <g transform="translate(0,-217)" fill="#fff">
  <g transform="matrix(4.5955 0 0 4.5955 -648.78 -102.42)">
   <path d="m148.66 76.748-0.36173-0.95085h-3.0799l-0.36173 0.97152q-0.21188 0.56844-0.36174 0.76998-0.14986 0.19637-0.49093 0.19637-0.28938 0-0.51159-0.21187t-0.22221-0.48059q0-0.15503 0.0517-0.3204 0.0517-0.16536 0.17053-0.45992l1.9379-4.9196q0.0827-0.21187 0.19638-0.50643 0.11885-0.29972 0.24804-0.49609 0.13436-0.19637 0.34623-0.31523 0.21704-0.12402 0.53227-0.12402 0.3204 0 0.53227 0.12402 0.21704 0.11886 0.34623 0.31006 0.13436 0.1912 0.22221 0.41341 0.093 0.21704 0.23254 0.58394l1.9792 4.8886q0.23254 0.55811 0.23254 0.81132 0 0.26355-0.22221 0.48576-0.21704 0.21704-0.5271 0.21704-0.18086 0-0.31005-0.06718-0.12919-0.06201-0.21704-0.17053-0.0879-0.11369-0.19121-0.34106-0.0982-0.23254-0.17053-0.40824zm-3.0386-2.1032h2.2634l-1.142-3.1264z" style="font-feature-settings:normal;font-variant-caps:normal;font-variant-ligatures:normal;font-variant-numeric:normal"/>
   <path d="m156.02 74.97v1.8759q0 0.44442-0.20154 0.66663-0.20154 0.22221-0.53227 0.22221-0.32039 0-0.52193-0.22221-0.19637-0.22221-0.19637-0.66663v-2.2479q0-0.53227-0.0362-0.82682-0.0362-0.29456-0.19637-0.48059-0.1602-0.1912-0.50643-0.1912-0.69247 0-0.91468 0.47542-0.21704 0.47542-0.21704 1.3643v1.9069q0 0.43925-0.20153 0.66663-0.19638 0.22221-0.52194 0.22221-0.32039 0-0.5271-0.22221-0.20154-0.22738-0.20154-0.66663v-4.0359q0-0.39791 0.18087-0.60462 0.18604-0.20671 0.48576-0.20671 0.28939 0 0.48059 0.19637 0.19637 0.1912 0.19637 0.53227v0.13436q0.36691-0.43925 0.78548-0.64596 0.41858-0.20671 0.93018-0.20671 0.53227 0 0.91467 0.21187 0.38241 0.21188 0.63046 0.64079 0.35656-0.43408 0.76481-0.64079 0.40824-0.21187 0.90433-0.21187 0.57878 0 0.99736 0.22738 0.41858 0.22738 0.62528 0.65112 0.18087 0.3824 0.18087 1.2041v2.7544q0 0.44442-0.20154 0.66663-0.20154 0.22221-0.53226 0.22221-0.3204 0-0.5271-0.22221-0.20154-0.22738-0.20154-0.66663v-2.3719q0-0.45475-0.0413-0.72864-0.0362-0.27388-0.20671-0.45992-0.17053-0.18603-0.51676-0.18603-0.27906 0-0.53227 0.16536-0.24805 0.16536-0.38757 0.44442-0.15503 0.35657-0.15503 1.2609z" style="font-feature-settings:normal;font-variant-caps:normal;font-variant-ligatures:normal;font-variant-numeric:normal"/>
   <path d="m165.97 74.867q0 0.63046-0.19637 1.1627-0.19637 0.53226-0.56844 0.91467-0.37207 0.3824-0.88884 0.58911-0.51676 0.20154-1.1627 0.20154-0.64079 0-1.1524-0.20671-0.5116-0.20671-0.88884-0.58911-0.37207-0.38757-0.56844-0.9095-0.1912-0.5271-0.1912-1.1627 0-0.64078 0.19637-1.1731 0.19637-0.53227 0.56327-0.9095 0.36691-0.37724 0.88884-0.57878 0.52193-0.20671 1.1524-0.20671 0.64079 0 1.1627 0.20671t0.894 0.58911q0.37207 0.38241 0.56328 0.9095 0.19637 0.5271 0.19637 1.1627zm-1.4159 0q0-0.86299-0.3824-1.3436-0.37724-0.48059-1.018-0.48059-0.41341 0-0.72864 0.21704-0.31522 0.21187-0.48575 0.63045-0.17054 0.41858-0.17054 0.97668 0 0.55294 0.16537 0.96635 0.17053 0.41341 0.48059 0.63562 0.31522 0.21704 0.73897 0.21704 0.64079 0 1.018-0.48059 0.3824-0.48576 0.3824-1.3384z" style="font-feature-settings:normal;font-variant-caps:normal;font-variant-ligatures:normal;font-variant-numeric:normal"/>
   <path transform="matrix(.057575 0 0 .057575 141.18 69.507)" d="m460.49 43.287c-3.5304 0-6.3132 1.1664-8.3477 3.5-2.0345 2.2738-3.0508 5.7449-3.0508 10.412v70.816c0 4.787 1.1364 8.468 3.4102 11.041 2.2738 2.573 5.1767 3.8594 8.707 3.8594 3.6501 0 6.611-1.2264 8.8848-3.6797 2.3337-2.5132 3.502-6.2542 3.502-11.221v-30.695c0-9.9928 0.59821-16.815 1.7949-20.465 1.6754-4.5476 4.3082-8.1087 7.8984-10.682 3.5902-2.6328 7.5694-3.9492 11.938-3.9492 6.7018 0 11.159 2.1546 13.373 6.4629 2.2738 4.2484 3.4102 10.412 3.4102 18.49v13.043 27.795 14.178l-0.3418 14.582-2.3496 0.05273c-3.71 0-6.5527 0.83829-8.5273 2.5137-1.9151 1.6156-2.8711 3.7102-2.8711 6.2832 0 2.573 0.92839 4.6977 2.7832 6.373 1.855 1.6755 4.5458 2.5137 8.0762 2.5137h3.2324v47.031c0 7.5993 0.59822 13.673 1.7949 18.221 1.2566 4.5476 3.8595 8.1067 7.8086 10.68 3.9493 2.573 9.753 3.8594 17.412 3.8594 8.078 0 14.272-1.0463 18.58-3.1406 4.3083-2.0943 6.4629-5.1172 6.4629-9.0664 0-2.3336-0.80854-4.2783-2.4238-5.834-1.5557-1.6156-3.3222-2.4219-5.2969-2.4219-1.3761 0-3.2908 0.26804-5.7441 0.80664-2.4533 0.47869-4.3976 0.71875-5.834 0.71875-2.6329 0-4.5474-0.62813-5.7441-1.8848-1.138-1.3164-1.8556-2.9929-2.1543-5.0274-0.23795-2.0943-0.35938-5.0552-0.35938-8.8848v-45.057h4.5781c4.8467 0 8.5559-0.65824 11.129-1.9746 2.6328-1.3164 3.9492-3.6211 3.9492-6.9121 0-2.573-0.92628-4.6676-2.7813-6.2832-1.795-1.6755-4.428-2.5137-7.8984-2.5137h-8.9766v-16.693c0-1.346-0.03504-2.5528-0.08593-3.6953v-36.219c0-0.00695-0.00359-0.01265-0.00391-0.01953v-17.781c0-5.3853-0.23858-9.8127-0.7168-13.283-0.47868-3.4705-1.5269-6.7015-3.1426-9.6934-2.5131-5.146-6.3123-9.1252-11.398-11.938-5.0861-2.8123-10.86-4.2188-17.322-4.2188-6.6419 0-12.536 1.3464-17.682 4.0391-5.0861 2.6328-9.7835 6.792-14.092 12.477v-2.9629h-0.00196c0-2.932-0.53837-5.4148-1.6152-7.4492-1.0172-2.0345-2.3937-3.5609-4.1289-4.5781s-3.6798-1.5254-5.834-1.5254z" style="font-feature-settings:normal;font-variant-caps:normal;font-variant-ligatures:normal;font-variant-numeric:normal"/>
   <path d="m179.63 73.033v4.0979q0 0.7028-0.14986 1.2092-0.14986 0.50643-0.48059 0.83716-0.33073 0.33073-0.86816 0.49093-0.53227 0.1602-1.3281 0.1602-0.72864 0-1.3022-0.20671-0.57361-0.20154-0.88367-0.5271-0.31006-0.32039-0.31006-0.66146 0-0.25838 0.1757-0.42375 0.1757-0.16019 0.42375-0.16019 0.31006 0 0.5426 0.27388 0.11369 0.13953 0.23255 0.27905 0.12402 0.14469 0.26871 0.24288 0.14986 0.10335 0.35657 0.14986 0.20671 0.05168 0.47542 0.05168 0.54777 0 0.8475-0.15503 0.30489-0.14986 0.42374-0.42375 0.12403-0.27389 0.1447-0.58911 0.0207-0.31006 0.031-1.0025-0.32556 0.45475-0.75447 0.69246-0.42375 0.23771-1.0129 0.23771-0.70797 0-1.2402-0.36174-0.52711-0.36174-0.81133-1.0129-0.28422-0.65112-0.28422-1.5038 0-0.63562 0.17054-1.1472 0.1757-0.5116 0.49609-0.863 0.32039-0.3514 0.73897-0.5271 0.41858-0.18087 0.91984-0.18087 0.59945 0 1.0387 0.23254 0.43925 0.22738 0.81649 0.7183v-0.1912q0-0.3669 0.18087-0.56844 0.18086-0.20154 0.46508-0.20154 0.40825 0 0.54261 0.26872 0.13435 0.26355 0.13435 0.76481zm-4.0876 1.788q0 0.85783 0.37207 1.2971 0.37724 0.43925 0.97152 0.43925 0.35139 0 0.66145-0.18603 0.31523-0.1912 0.5116-0.56844 0.19637-0.3824 0.19637-0.92501 0-0.863-0.3824-1.3436-0.37724-0.48059-0.99736-0.48059-0.60461 0-0.97152 0.45992-0.36173 0.45992-0.36173 1.3074z" style="font-feature-settings:normal;font-variant-caps:normal;font-variant-ligatures:normal;font-variant-numeric:normal"/>
  </g>
  <g transform="matrix(4.5955 0 0 4.5955 -654.88 -144.85)">
   <path d="m148.74 89.011h-1.6743v5.5035q0 0.47542-0.21187 0.70797-0.21188 0.22738-0.54777 0.22738-0.34107 0-0.55811-0.23254-0.21187-0.23254-0.21187-0.7028v-5.5035h-1.6743q-0.39274 0-0.58394-0.17053-0.1912-0.1757-0.1912-0.45992 0-0.29456 0.19637-0.46509 0.20154-0.17053 0.57877-0.17053h4.8783q0.39791 0 0.58911 0.1757 0.19637 0.1757 0.19637 0.45992 0 0.28422-0.19637 0.45992-0.19637 0.17053-0.58911 0.17053z" style="font-feature-settings:normal;font-variant-caps:normal;font-variant-ligatures:normal;font-variant-numeric:normal"/>
   <path d="m153.37 94.654q-0.5116 0.39791-0.99219 0.59944-0.47543 0.19637-1.0697 0.19637-0.54261 0-0.95602-0.21187-0.40824-0.21704-0.63045-0.58394-0.22221-0.3669-0.22221-0.79582 0-0.57878 0.3669-0.98702 0.36691-0.40824 1.0077-0.54777 0.13436-0.03101 0.66663-0.13952 0.53227-0.10852 0.9095-0.19637 0.38241-0.09302 0.82683-0.22221-0.0258-0.55811-0.22738-0.81649-0.19637-0.26355-0.82165-0.26355-0.53744 0-0.81132 0.14986-0.26872 0.14986-0.46509 0.44958-0.1912 0.29972-0.27389 0.39791-0.0775 0.09302-0.34106 0.09302-0.23771 0-0.41341-0.14986-0.17053-0.15503-0.17053-0.39274 0-0.37207 0.26355-0.72347 0.26355-0.3514 0.82165-0.57878 0.55811-0.22738 1.3901-0.22738 0.93017 0 1.4624 0.22221 0.53227 0.21704 0.74931 0.69246 0.22221 0.47542 0.22221 1.2609 0 0.49609-5e-3 0.84233 0 0.34623-5e-3 0.76998 0 0.39791 0.12919 0.83199 0.13436 0.42891 0.13436 0.55294 0 0.21704-0.20671 0.39791-0.20154 0.1757-0.45992 0.1757-0.21704 0-0.42891-0.20154-0.21188-0.20671-0.44959-0.59428zm-0.093-2.0412q-0.31006 0.11369-0.90434 0.24288-0.58911 0.12402-0.81649 0.18604-0.22737 0.05684-0.43408 0.23254-0.20671 0.17053-0.20671 0.48059 0 0.32039 0.24288 0.54777 0.24288 0.22221 0.63563 0.22221 0.41857 0 0.76997-0.18087 0.35657-0.18603 0.52194-0.47542 0.1912-0.32039 0.1912-1.0542z" style="font-feature-settings:normal;font-variant-caps:normal;font-variant-ligatures:normal;font-variant-numeric:normal"/>
   <path d="m155.91 94.605v-6.1185q0-0.42375 0.18603-0.64079 0.19121-0.21704 0.5116-0.21704t0.51677 0.21704q0.19636 0.21187 0.19636 0.64079v6.1185q0 0.42891-0.20153 0.64596-0.19637 0.21187-0.5116 0.21187-0.31006 0-0.50643-0.22221-0.1912-0.22221-0.1912-0.63562z" style="font-feature-settings:normal;font-variant-caps:normal;font-variant-ligatures:normal;font-variant-numeric:normal"/>
   <path d="m162.89 92.939h-2.7595q5e-3 0.48059 0.1912 0.84749 0.19121 0.3669 0.50126 0.55294 0.31523 0.18603 0.69247 0.18603 0.25321 0 0.45992-0.05684 0.21187-0.06201 0.40824-0.18604 0.19637-0.12919 0.36174-0.27388 0.16536-0.1447 0.42891-0.39274 0.10852-0.09302 0.31006-0.09302 0.21704 0 0.3514 0.11886t0.13436 0.3359q0 0.1912-0.14986 0.44958-0.14986 0.25321-0.45475 0.49093-0.29973 0.23254-0.75965 0.38757-0.45475 0.15503-1.049 0.15503-1.3591 0-2.1136-0.77515-0.75448-0.77515-0.75448-2.1032 0-0.62528 0.18603-1.1576 0.18604-0.53744 0.54261-0.91984 0.35656-0.3824 0.87849-0.58394 0.52194-0.20671 1.1576-0.20671 0.82682 0 1.4159 0.3514 0.59428 0.34623 0.88884 0.89917 0.29455 0.55294 0.29455 1.1265 0 0.53227-0.30489 0.69246-0.30489 0.15503-0.85783 0.15503zm-2.7595-0.80099h2.558q-0.0517-0.72347-0.39274-1.08-0.33589-0.36173-0.88883-0.36173-0.5271 0-0.86817 0.3669-0.33589 0.36174-0.40824 1.0749z" style="font-feature-settings:normal;font-variant-caps:normal;font-variant-ligatures:normal;font-variant-numeric:normal"/>
   <path d="m166.52 90.48v0.17053q0.37207-0.49093 0.81132-0.7183 0.44441-0.23254 1.018-0.23254 0.55811 0 0.99736 0.24288 0.43925 0.24288 0.65629 0.6873 0.13952 0.25838 0.18087 0.5581 0.0413 0.29972 0.0413 0.76481v2.6252q0 0.42375-0.19637 0.64079-0.19121 0.21704-0.50126 0.21704-0.31523 0-0.5116-0.22221-0.19637-0.22221-0.19637-0.63562v-2.3513q0-0.69763-0.19637-1.0645-0.1912-0.37207-0.76998-0.37207-0.37724 0-0.6873 0.22738-0.31006 0.22221-0.45475 0.61495-0.10335 0.31522-0.10335 1.1782v1.7673q0 0.42891-0.20154 0.64596-0.19637 0.21187-0.5116 0.21187-0.30489 0-0.50126-0.22221-0.19637-0.22221-0.19637-0.63562v-4.0773q0-0.40308 0.1757-0.59945 0.1757-0.20154 0.48059-0.20154 0.18604 0 0.3359 0.08785t0.23771 0.26355q0.093 0.1757 0.093 0.42891z" style="font-feature-settings:normal;font-variant-caps:normal;font-variant-ligatures:normal;font-variant-numeric:normal"/>
   <path d="m180.95 93.618q0 0.58394-0.28422 1.0025-0.28422 0.41341-0.84233 0.63045-0.55293 0.21187-1.3488 0.21187-0.75964 0-1.3022-0.23254-0.5426-0.23254-0.80098-0.57878-0.25838-0.3514-0.25838-0.7028 0-0.23254 0.16536-0.39791 0.16537-0.16536 0.41858-0.16536 0.22221 0 0.34107 0.10852 0.11885 0.10852 0.22737 0.30489 0.21704 0.37724 0.51677 0.56327 0.30489 0.18604 0.82682 0.18604 0.42374 0 0.69246-0.18604 0.27389-0.1912 0.27389-0.43408 0-0.37207-0.28422-0.5426-0.27905-0.17054-0.92501-0.32556-0.72864-0.18087-1.1886-0.37724-0.45475-0.20154-0.72864-0.5271-0.27388-0.32556-0.27388-0.80099 0-0.42375 0.25321-0.80098 0.25322-0.37724 0.74414-0.59944 0.4961-0.22738 1.1937-0.22738 0.54777 0 0.98185 0.11369 0.43925 0.11369 0.72864 0.30489 0.29456 0.1912 0.44442 0.42375 0.15503 0.23254 0.15503 0.45475 0 0.24288-0.16537 0.39791-0.1602 0.15503-0.45992 0.15503-0.21704 0-0.37207-0.12402-0.14986-0.12402-0.34623-0.37207-0.1602-0.20671-0.37724-0.33073t-0.58911-0.12402q-0.38241 0-0.63562 0.16536-0.25321 0.1602-0.25321 0.40308 0 0.22221 0.18603 0.3669 0.18604 0.13953 0.50126 0.23254 0.31523 0.09302 0.86816 0.22738 0.6563 0.16019 1.0697 0.3824 0.41858 0.22221 0.63045 0.5271 0.21704 0.29972 0.21704 0.6873z" style="font-feature-settings:normal;font-variant-caps:normal;font-variant-ligatures:normal;font-variant-numeric:normal"/>
  </g>
 </g>
</svg>
